<svg width="32" height="32" viewBox="0 0 32 32" fill="none" xmlns="http://www.w3.org/2000/svg">
  <defs>
    <linearGradient id="gradient" x1="0%" y1="0%" x2="100%" y2="100%">
      <stop offset="0%" style="stop-color:#8B5CF6;stop-opacity:1" />
      <stop offset="100%" style="stop-color:#EC4899;stop-opacity:1" />
    </linearGradient>
  </defs>
  <rect width="32" height="32" rx="6" fill="url(#gradient)"/>
  <path d="M8 10C8 9.44772 8.44772 9 9 9H11C11.5523 9 12 9.44772 12 10V11H20V10C20 9.44772 20.4477 9 21 9H23C23.5523 9 24 9.44772 24 10V22C24 22.5523 23.5523 23 23 23H21C20.4477 23 20 22.5523 20 22V21H12V22C12 22.5523 11.5523 23 11 23H9C8.44772 23 8 22.5523 8 22V10Z" fill="white"/>
  <circle cx="10" cy="16" r="1.5" fill="url(#gradient)"/>
  <circle cx="22" cy="16" r="1.5" fill="url(#gradient)"/>
  <path d="M12 13H20V19H12V13Z" fill="url(#gradient)" fill-opacity="0.3"/>
</svg>
